<svg xmlns="http://www.w3.org/2000/svg" viewBox="0 0 1600 900" preserveAspectRatio="xMidYMid slice">
  <defs>
    <linearGradient id="base" x1="0" y1="0" x2="1" y2="1">
      <stop offset="0" stop-color="#0B5C3C"/>
      <stop offset="0.55" stop-color="#073F29"/>
      <stop offset="1" stop-color="#052A1B"/>
    </linearGradient>
    <linearGradient id="glow1" x1="0" y1="0" x2="1" y2="1">
      <stop offset="0" stop-color="#7FD9AC" stop-opacity="0.10"/>
      <stop offset="1" stop-color="#7FD9AC" stop-opacity="0"/>
    </linearGradient>
    <linearGradient id="glow2" x1="1" y1="0" x2="0" y2="1">
      <stop offset="0" stop-color="#0B5C3C" stop-opacity="0.55"/>
      <stop offset="1" stop-color="#0B5C3C" stop-opacity="0"/>
    </linearGradient>
  </defs>

  <rect width="1600" height="900" fill="url(#base)"/>

  <polygon points="0,0 480,0 200,340 0,260" fill="#0E6A46" opacity="0.35"/>
  <polygon points="1600,0 1600,260 1180,420 1340,0" fill="#0E6A46" opacity="0.3"/>
  <polygon points="1600,900 1600,560 1140,900" fill="#0A4A31" opacity="0.5"/>
  <polygon points="0,900 0,520 360,900" fill="#0A4A31" opacity="0.45"/>
  <polygon points="620,0 980,0 860,220 560,180" fill="#7FD9AC" opacity="0.05"/>
  <polygon points="1100,900 1600,760 1600,900" fill="#7FD9AC" opacity="0.04"/>
  <polygon points="0,900 260,720 520,900" fill="#7FD9AC" opacity="0.04"/>

  <circle cx="1420" cy="140" r="260" fill="url(#glow1)"/>
  <circle cx="160" cy="800" r="300" fill="url(#glow2)"/>
</svg>
